<svg width="100" height="100" viewBox="0 0 100 100" fill="none" xmlns="http://www.w3.org/2000/svg">
<rect width="100" height="100" fill="white"/>
<g clip-path="url(#clip0_158_3)">
<path d="M50.0021 1C22.9396 1 1 22.9375 1 50C1 77.0625 22.9396 99 50.0021 99C77.0646 99 99 77.0627 99 50C99 22.9375 77.0646 1 50.0021 1ZM86.7343 33.2332C88.0389 34.2758 88.871 36.2672 88.7628 38.5103C88.6587 40.7467 87.6488 42.6362 86.2531 43.5226C84.9531 42.4802 84.1208 40.4844 84.2292 38.2457C84.3331 36.0051 85.343 34.1196 86.7343 33.2332ZM83.7264 48.8883C81.997 48.5373 80.2156 47.0811 79.1711 44.9572C78.1224 42.8357 78.0877 40.61 78.9154 39.1342C80.6403 39.4876 82.4217 40.9417 83.4704 43.0676C84.5195 45.1869 84.5542 47.4126 83.7264 48.8883ZM75.2574 33.9464C73.6926 32.3839 72.9647 30.4616 73.2072 28.9556C74.8022 28.7975 76.7873 29.5842 78.3519 31.1488C79.9166 32.7135 80.6447 34.6377 80.4018 36.1395C78.807 36.2976 76.8264 35.5132 75.2574 33.9464ZM76.3626 69.8375C75.9378 72.2799 74.5641 74.2129 72.9127 74.991C71.6299 73.6649 70.9969 71.3632 71.4216 68.9211C71.8507 66.4807 73.2204 64.552 74.8761 63.77C76.1545 65.0937 76.7917 67.3973 76.3626 69.8375ZM82.4173 58.1202C82.4045 60.4627 81.4293 62.4739 80.0163 63.4534C78.612 62.4152 77.6628 60.3652 77.6758 58.0226C77.6888 55.6821 78.6598 53.6712 80.0726 52.6894C81.477 53.7274 82.4303 55.7776 82.4173 58.1202ZM78.287 22.4434C79.7085 22.9135 81.0694 24.32 81.7457 26.2162C82.4259 28.1102 82.2397 29.9869 81.4033 31.1486C79.9859 30.6739 78.625 29.2719 77.949 27.3758C77.2685 25.4795 77.4547 23.6028 78.287 22.4434ZM73.1249 21.063C74.5856 22.5106 75.2748 24.3005 75.0537 25.7004C73.5715 25.8543 71.7206 25.1325 70.2602 23.6807C68.7953 22.231 68.1061 20.4452 68.3316 19.041C69.8094 18.8894 71.6601 19.6131 73.1249 21.063ZM26.8793 21.063C28.3441 19.6131 30.1906 18.8894 31.6729 19.041C31.8937 20.4452 31.2093 22.231 29.7442 23.6807C28.2792 25.1327 26.4329 25.8543 24.9507 25.7004C24.7294 24.3005 25.4142 22.5106 26.8793 21.063ZM25.1283 63.7698C26.7797 64.552 28.1537 66.4807 28.5784 68.9209C29.0031 71.363 28.3745 73.6647 27.0917 74.9908C25.4403 74.2127 24.0664 72.2797 23.6416 69.8373C23.2125 67.3973 23.8455 65.0937 25.1283 63.7698ZM19.6022 36.1395C19.3595 34.6375 20.0876 32.7133 21.6522 31.1488C23.2169 29.5842 25.2018 28.7975 26.7926 28.9556C27.0395 30.4618 26.3072 32.3839 24.7426 33.9464C23.1779 35.5132 21.193 36.2976 19.6022 36.1395ZM18.2543 26.2162C18.9348 24.32 20.2913 22.9135 21.713 22.4434C22.5495 23.603 22.7313 25.4795 22.0555 27.3758C21.3748 29.2719 20.0183 30.6741 18.5967 31.1486C17.7603 29.9869 17.5783 28.1102 18.2543 26.2162ZM21.0889 39.1342C21.9169 40.61 21.882 42.8357 20.8331 44.9572C19.7842 47.0811 18.0028 48.5373 16.2779 48.8883C15.45 47.4126 15.4847 45.1869 16.5336 43.0676C17.5783 40.9417 19.3595 39.4876 21.0889 39.1342ZM22.3284 58.0226C22.3414 60.3652 21.388 62.4154 19.9837 63.4534C18.5705 62.4738 17.5997 60.4627 17.5869 58.1202C17.5739 55.7776 18.5273 53.7274 19.9274 52.6894C21.3404 53.6712 22.3154 55.6821 22.3284 58.0226ZM13.2657 33.2332C14.6612 34.1194 15.6713 36.0051 15.7752 38.2457C15.8793 40.4844 15.0513 42.4802 13.7513 43.5226C12.3558 42.6364 11.3413 40.7468 11.2418 38.5103C11.1332 36.2672 11.9655 34.2758 13.2657 33.2332ZM9.19161 53.4696C7.91302 51.5039 7.62246 49.2916 8.26846 47.705C10.015 47.8134 11.9396 49.0097 13.2224 50.9796C14.501 52.945 14.7914 55.1534 14.1456 56.7419C12.3988 56.6357 10.4702 55.4373 9.19161 53.4696ZM15.3028 71.9528C13.0446 70.5268 11.6923 68.4378 11.6058 66.5739C13.4651 65.9369 16.0267 66.316 18.2848 67.742C20.543 69.1659 21.8952 71.2526 21.982 73.1165C20.1224 73.7558 17.5609 73.3764 15.3028 71.9528ZM27.3733 82.58C24.7556 81.7501 22.8354 80.0598 22.2157 78.2849C23.8495 77.2229 26.4632 76.9716 29.081 77.8037C31.6945 78.6294 33.6145 80.3239 34.2387 82.0967C32.6048 83.1588 29.9869 83.4102 27.3733 82.58ZM53.4304 67.56C53.4304 67.8806 53.2179 68.0931 52.8975 68.0931H48.004C47.6834 68.0931 47.4709 67.8806 47.4709 67.56V39.0368H47.3668L41.8321 42.9203C41.5113 43.1346 41.247 43.0286 41.247 42.6039V37.1752C41.247 36.8565 41.3511 36.6442 41.6153 36.4299L47.4187 32.2254C47.6832 32.0132 47.952 31.9069 48.3767 31.9069H52.8973C53.2179 31.9069 53.4302 32.1194 53.4302 32.44V67.56H53.4304ZM72.6309 82.58C70.0173 83.4102 67.3994 83.1588 65.7656 82.0969C66.3853 80.3241 68.3055 78.6296 70.9232 77.8039C73.5368 76.9716 76.1547 77.2231 77.7886 78.2851C77.1688 80.0598 75.2488 81.7501 72.6309 82.58ZM84.7016 71.9528C82.4434 73.3764 79.882 73.7558 78.0226 73.1165C78.1092 71.2526 79.4616 69.1659 81.7197 67.742C83.9779 66.316 86.5391 65.9369 88.3986 66.5739C88.3119 68.4378 86.9596 70.5268 84.7016 71.9528ZM85.8588 56.7419C85.213 55.1534 85.5036 52.945 86.782 50.9796C88.0606 49.0097 89.9892 47.8134 91.7359 47.705C92.3819 49.2914 92.0914 51.5039 90.8128 53.4696C89.5342 55.4373 87.6054 56.6357 85.8588 56.7419Z" fill="#F2CE0A"/>
</g>
<defs>
<clipPath id="clip0_158_3">
<rect width="98" height="98" fill="white" transform="translate(1 1)"/>
</clipPath>
</defs>
</svg>
