<svg width="100" height="100" viewBox="0 0 100 100" fill="none" xmlns="http://www.w3.org/2000/svg">
<rect width="100" height="100" fill="white"/>
<g clip-path="url(#clip0_159_5)">
<path d="M50.0021 1C22.9396 1 1 22.9375 1 50C1 77.0625 22.9396 99 50.0021 99C77.0602 99 99 77.0627 99 50C99 22.9375 77.0602 1 50.0021 1ZM86.7341 33.2332C88.0345 34.2758 88.8668 36.2672 88.7626 38.5103C88.6585 40.7467 87.6444 42.6362 86.2529 43.5226C84.9483 42.4802 84.1207 40.4844 84.2248 38.2457C84.3287 36.0051 85.343 34.1196 86.7341 33.2332ZM83.722 48.8883C81.997 48.5373 80.2156 47.0811 79.1711 44.9572C78.1224 42.8357 78.0875 40.61 78.911 39.1342C80.6403 39.4876 82.4217 40.9417 83.4662 43.0676C84.5151 45.1869 84.5496 47.4126 83.722 48.8883ZM75.2572 33.9464C73.6926 32.3839 72.9645 30.4616 73.2072 28.9556C74.7978 28.7975 76.7829 29.5842 78.3519 31.1488C79.9166 32.7135 80.6447 34.6377 80.3976 36.1395C78.8072 36.2976 76.8219 35.5132 75.2572 33.9464ZM76.3626 69.8375C75.9378 72.2799 74.5637 74.2129 72.9127 74.991C71.6299 73.6649 70.9969 71.3632 71.4216 68.9211C71.8507 66.4807 73.2204 64.552 74.8717 63.77C76.1543 65.0937 76.7917 67.3973 76.3626 69.8375ZM82.4173 58.1202C82.4043 60.4627 81.4293 62.4739 80.0163 63.4534C78.612 62.4152 77.6628 60.3652 77.6714 58.0226C77.6844 55.6821 78.6596 53.6712 80.0728 52.6894C81.4769 53.7274 82.4259 55.7776 82.4173 58.1202ZM78.287 22.4434C79.7085 22.9135 81.065 24.32 81.7457 26.2162C82.4259 28.1102 82.2397 29.9869 81.4033 31.1486C79.9859 30.6739 78.625 29.2719 77.9488 27.3758C77.2685 25.4795 77.4503 23.6028 78.287 22.4434ZM73.1249 21.063C74.5856 22.5106 75.2748 24.3005 75.0535 25.7004C73.5715 25.8543 71.7208 25.1325 70.2602 23.6807C68.7951 22.231 68.1061 20.4452 68.3271 19.041C69.8094 18.8894 71.6557 19.6131 73.1249 21.063ZM26.8749 21.063C28.3441 19.6131 30.1906 18.8894 31.6729 19.041C31.8937 20.4452 31.2049 22.231 29.7442 23.6807C28.2792 25.1327 26.4285 25.8543 24.9507 25.7004C24.7294 24.3005 25.4142 22.5106 26.8749 21.063ZM25.1283 63.7698C26.7796 64.552 28.1537 66.4807 28.5782 68.9209C29.0029 71.363 28.3745 73.6647 27.0871 74.9908C25.4401 74.2127 24.0664 72.2797 23.637 69.8373C23.2125 67.3973 23.8455 65.0937 25.1283 63.7698ZM19.6022 36.1395C19.3549 34.6375 20.0834 32.7133 21.6522 31.1488C23.2169 29.5842 25.2018 28.7975 26.7926 28.9556C27.0353 30.4618 26.3072 32.3839 24.7426 33.9464C23.1779 35.5132 21.193 36.2976 19.6022 36.1395ZM18.2541 26.2162C18.9348 24.32 20.2913 22.9135 21.7128 22.4434C22.5495 23.603 22.7315 25.4795 22.0553 27.3758C21.375 29.2719 20.0183 30.6741 18.5966 31.1486C17.7603 29.9869 17.5739 28.1102 18.2541 26.2162ZM21.0889 39.1342C21.9123 40.61 21.8778 42.8357 20.8331 44.9572C19.7842 47.0811 18.0028 48.5373 16.2777 48.8883C15.45 47.4126 15.4845 45.1869 16.5336 43.0676C17.5783 40.9417 19.3595 39.4876 21.0889 39.1342ZM22.3284 58.0226C22.3412 60.3652 21.388 62.4154 19.9835 63.4534C18.5705 62.4738 17.5955 60.4627 17.5869 58.1202C17.5739 55.7776 18.5229 53.7274 19.9274 52.6894C21.3404 53.6712 22.3154 55.6821 22.3284 58.0226ZM13.2657 33.2332C14.6612 34.1194 15.6713 36.0051 15.7752 38.2457C15.8792 40.4844 15.0513 42.4802 13.7467 43.5226C12.3554 42.6364 11.3411 40.7468 11.2372 38.5103C11.1332 36.2672 11.9655 34.2758 13.2657 33.2332ZM9.19161 53.4696C7.91302 51.5039 7.61825 49.2916 8.26406 47.705C10.0152 47.8134 11.9392 49.0097 13.218 50.9796C14.4966 52.945 14.787 55.1534 14.1456 56.7419C12.3944 56.6357 10.47 55.4373 9.19161 53.4696ZM15.3028 71.9528C13.0446 70.5268 11.6923 68.4378 11.6058 66.5739C13.4607 65.9369 16.0265 66.316 18.2848 67.742C20.543 69.1659 21.8908 71.2526 21.9818 73.1165C20.1223 73.7558 17.5607 73.3764 15.3028 71.9528ZM27.3691 82.58C24.7554 81.7501 22.831 80.0598 22.2113 78.2849C23.8497 77.2229 26.4632 76.9716 29.0766 77.8037C31.6945 78.6294 33.6145 80.3239 34.2343 82.0967C32.6004 83.1588 29.9869 83.4102 27.3691 82.58ZM60.17 63.0633C60.4864 63.0633 60.6988 63.2779 60.6988 63.5964V67.8527C60.6988 68.1733 60.4864 68.3857 60.17 68.3857H39.8384C39.522 68.3857 39.3098 68.1733 39.3098 67.8527V63.8609C39.3098 63.5422 39.3618 63.382 39.5743 63.1716L52.347 47.2587C53.786 45.5035 54.6875 43.8 54.6875 41.724C54.6875 39.0129 52.9322 36.9369 49.8982 36.9369C47.0248 36.9369 45.3733 38.6921 45.0007 41.4573C44.9486 41.7758 44.7361 41.9385 44.4155 41.8844L39.7345 40.9264C39.4139 40.8722 39.2579 40.6079 39.3098 40.2871C39.7868 36.031 43.1932 31.6145 50.0586 31.6145C56.8156 31.6145 60.6988 36.083 60.6988 41.724C60.6988 44.9702 59.4247 47.6336 57.2964 50.1864L46.7557 62.9571V63.0631H60.17V63.0633ZM72.6309 82.58C70.0173 83.4102 67.3994 83.1588 65.7656 82.0969C66.3853 80.3241 68.3053 78.6296 70.9232 77.8039C73.5368 76.9716 76.1545 77.2231 77.7887 78.2851C77.1688 80.0598 75.2486 81.7501 72.6309 82.58ZM84.6974 71.9528C82.4434 73.3764 79.8778 73.7558 78.0182 73.1165C78.1093 71.2526 79.4616 69.1659 81.7153 67.742C83.9777 66.316 86.5391 65.9369 88.3984 66.5739C88.3075 68.4378 86.9552 70.5268 84.6974 71.9528ZM85.8542 56.7419C85.213 55.1534 85.5032 52.945 86.7818 50.9796C88.0604 49.0097 89.9848 47.8134 91.7358 47.705C92.3816 49.2914 92.0868 51.5039 90.8084 53.4696C89.5298 55.4373 87.6054 56.6357 85.8542 56.7419Z" fill="#B2B0B0"/>
</g>
<defs>
<clipPath id="clip0_159_5">
<rect width="98" height="98" fill="white" transform="translate(1 1)"/>
</clipPath>
</defs>
</svg>
