<svg width="100" height="100" viewBox="0 0 100 100" fill="none" xmlns="http://www.w3.org/2000/svg">
<rect width="100" height="100" fill="white"/>
<g clip-path="url(#clip0_159_13)">
<path d="M50.0023 1C22.9397 1 1 22.9375 1 50C1 77.0625 22.9397 99 50.0023 99C77.0648 99 99 77.0627 99 50C99 22.9375 77.0648 1 50.0023 1ZM86.7343 33.2332C88.0389 34.2758 88.8712 36.2672 88.7628 38.5103C88.6587 40.7467 87.6488 42.6362 86.2533 43.5226C84.9533 42.4802 84.121 40.4844 84.2294 38.2457C84.3333 36.0051 85.343 34.1196 86.7343 33.2332ZM83.7264 48.8883C81.997 48.5373 80.2158 47.0811 79.1713 44.9572C78.1224 42.8357 78.0877 40.61 78.9157 39.1343C80.6407 39.4876 82.4219 40.9417 83.4708 43.0676C84.5197 45.1869 84.5544 47.4126 83.7264 48.8883ZM75.2574 33.9464C73.6926 32.3839 72.9647 30.4616 73.2074 28.9556C74.8022 28.7975 76.7875 29.5842 78.3521 31.1488C79.9166 32.7135 80.6449 34.6377 80.402 36.1395C78.807 36.2976 76.8265 35.5132 75.2574 33.9464ZM76.3628 69.8375C75.938 72.2799 74.5639 74.2129 72.9127 74.991C71.6299 73.6649 70.9969 71.3632 71.4218 68.9211C71.8509 66.4807 73.2206 64.552 74.8759 63.77C76.1545 65.0937 76.7917 67.3973 76.3628 69.8375ZM82.4175 58.1202C82.4045 60.4626 81.4295 62.4739 80.0165 63.4534C78.612 62.4152 77.663 60.3652 77.676 58.0226C77.6888 55.6821 78.6598 53.6712 80.0726 52.6894C81.4771 53.7274 82.4303 55.7776 82.4175 58.1202ZM78.2872 22.4434C79.7087 22.9135 81.0696 24.32 81.7459 26.2162C82.4263 28.1102 82.2399 29.9869 81.4035 31.1486C79.9861 30.6739 78.625 29.2719 77.949 27.3758C77.2685 25.4795 77.4549 23.6028 78.2872 22.4434ZM73.1251 21.063C74.5858 22.5106 75.2748 24.3005 75.0537 25.7004C73.5717 25.8543 71.721 25.1325 70.2604 23.6807C68.7953 22.231 68.1063 20.4452 68.3316 19.041C69.8094 18.8894 71.6601 19.6131 73.1251 21.063ZM26.8793 21.063C28.3443 19.6131 30.1906 18.8894 31.6729 19.041C31.8939 20.4452 31.2091 22.231 29.7442 23.6807C28.2792 25.1327 26.4329 25.8543 24.9507 25.7004C24.7298 24.3005 25.4146 22.5106 26.8793 21.063ZM25.1285 63.7698C26.7797 64.552 28.1538 66.4807 28.5786 68.9209C29.0033 71.363 28.3749 73.6647 27.0917 74.9908C25.4405 74.2127 24.0668 72.2797 23.6418 69.8373C23.2127 67.3973 23.8457 65.0937 25.1285 63.7698ZM19.6022 36.1395C19.3597 34.6375 20.0878 32.7133 21.6525 31.1488C23.2171 29.5842 25.2022 28.7975 26.7929 28.9556C27.0399 30.4618 26.3074 32.3839 24.743 33.9464C23.1781 35.5132 21.193 36.2976 19.6022 36.1395ZM18.2545 26.2162C18.9351 24.32 20.2916 22.9135 21.7132 22.4434C22.5499 23.603 22.7319 25.4795 22.0556 27.3758C21.3754 29.2719 20.0185 30.6741 18.5969 31.1486C17.7603 29.9869 17.5783 28.1102 18.2545 26.2162ZM21.089 39.1343C21.9167 40.61 21.8822 42.8357 20.8331 44.9572C19.7844 47.0811 18.0028 48.5373 16.278 48.8883C15.4504 47.4126 15.485 45.1869 16.5338 43.0676C17.5783 40.9417 19.3597 39.4876 21.089 39.1343ZM22.3288 58.0226C22.3416 60.3652 21.388 62.4154 19.9839 63.4534C18.5709 62.4738 17.6001 60.4626 17.5871 58.1202C17.5743 55.7776 18.5276 53.7274 19.9276 52.6894C21.3404 53.6712 22.3156 55.6821 22.3288 58.0226ZM13.2659 33.2332C14.6614 34.1194 15.6713 36.0051 15.7752 38.2457C15.8793 40.4844 15.0517 42.4802 13.7513 43.5226C12.3558 42.6364 11.3415 40.7468 11.242 38.5103C11.1334 36.2672 11.9655 34.2758 13.2659 33.2332ZM9.19161 53.4696C7.91302 51.5039 7.62266 49.2916 8.26846 47.705C10.015 47.8134 11.9394 49.0097 13.2224 50.9796C14.501 52.945 14.7916 55.1534 14.1458 56.7419C12.399 56.6357 10.4702 55.4373 9.19161 53.4696ZM15.3028 71.9528C13.0448 70.5268 11.6925 68.4378 11.6058 66.5739C13.4651 65.9369 16.0267 66.316 18.2847 67.742C20.543 69.1659 21.8951 71.2526 21.9818 73.1165C20.1224 73.7558 17.5609 73.3764 15.3028 71.9528ZM27.3735 82.58C24.7556 81.7501 22.8356 80.0598 22.2159 78.2849C23.8497 77.2229 26.4632 76.9716 29.081 77.8037C31.6947 78.6294 33.6147 80.3239 34.2387 82.0967C32.6048 83.1588 29.9869 83.4102 27.3735 82.58ZM49.9242 68.6782C44.2856 68.6782 39.8691 65.8567 38.7509 60.909C38.6988 60.5905 38.8592 60.3239 39.1756 60.2155L43.8044 59.1536C44.0731 59.0995 44.3374 59.2055 44.4414 59.5242C45.1867 61.6543 46.9465 63.3554 49.924 63.3554C53.2744 63.3554 55.2463 61.0692 55.2463 57.9813C55.2463 54.308 52.9059 52.0758 49.3387 52.0758H47.7958C47.4752 52.0758 47.2627 51.8614 47.2627 51.5427V47.3406C47.2627 47.02 47.4752 46.8054 47.7958 46.8054H49.2348C52.4247 46.8054 54.5007 44.7294 54.5007 41.5372C54.5007 38.6659 52.6935 36.6439 49.6595 36.6439C46.9982 36.6439 45.4552 38.1326 44.8181 40.369C44.7097 40.6854 44.4973 40.7939 44.1767 40.7396L39.6562 39.6755C39.3354 39.6214 39.175 39.3548 39.2313 39.0364C40.0289 34.6739 44.0164 31.3216 49.8719 31.3216C56.6332 31.3216 60.5124 35.4715 60.5124 41.3249C60.5124 44.3589 59.1297 47.0699 56.473 48.8274V48.9335C58.5966 49.8415 61.2578 52.9794 61.2578 57.7146C61.2581 64.3137 56.4169 68.6782 49.9242 68.6782ZM72.6309 82.58C70.0175 83.4102 67.3996 83.1588 65.7658 82.0969C66.3855 80.3241 68.3055 78.6296 70.9234 77.8039C73.5368 76.9716 76.1547 77.2231 77.7886 78.2851C77.169 80.0598 75.2488 81.7501 72.6309 82.58ZM84.7018 71.9528C82.4436 73.3764 79.8821 73.7558 78.0226 73.1165C78.1093 71.2526 79.4616 69.1659 81.7197 67.742C83.9779 66.316 86.5393 65.9369 88.3986 66.5739C88.3119 68.4378 86.9598 70.5268 84.7018 71.9528ZM85.859 56.7419C85.2132 55.1534 85.5036 52.945 86.7822 50.9796C88.0608 49.0097 89.9894 47.8134 91.7361 47.705C92.3819 49.2914 92.0918 51.5039 90.813 53.4696C89.5342 55.4373 87.6056 56.6357 85.859 56.7419Z" fill="#CD7F32"/>
</g>
<defs>
<clipPath id="clip0_159_13">
<rect width="98" height="98" fill="white" transform="translate(1 1)"/>
</clipPath>
</defs>
</svg>
