<svg width="100" height="100" viewBox="0 0 100 100" fill="none" xmlns="http://www.w3.org/2000/svg">
<circle cx="50" cy="50" r="49" fill="#52A2E8"/>
<path d="M39.9785 51.6426V32.4043H58.9482V37.5068H44.7881V45.5635C46.4482 44.2614 48.3444 43.6104 50.4766 43.6104C51.8438 43.6429 53.097 43.887 54.2363 44.3428C55.3105 44.8473 56.1813 45.4658 56.8486 46.1982C57.8415 47.1748 58.5576 48.306 58.9971 49.5918C59.2249 50.2917 59.3877 51.1462 59.4854 52.1553C59.583 53.1807 59.6318 54.4421 59.6318 55.9395C59.6318 58.2507 59.4691 60.0247 59.1436 61.2617C58.8018 62.4824 58.2321 63.5648 57.4346 64.5088C56.7347 65.4365 55.7174 66.2829 54.3828 67.0479C53.0807 67.8454 51.5345 68.2604 49.7441 68.293C47.3353 68.293 45.1299 67.5768 43.1279 66.1445C41.0934 64.6797 39.832 62.3115 39.3438 59.04H44.4463C44.9997 61.7744 46.7005 63.1579 49.5488 63.1904C50.7695 63.1904 51.7461 62.9463 52.4785 62.458C53.1784 61.986 53.6667 61.3675 53.9434 60.6025C54.2363 59.8376 54.4154 59.0075 54.4805 58.1123C54.513 57.2334 54.5293 56.3789 54.5293 55.5488C54.5618 53.5143 54.2445 51.8623 53.5771 50.5928C53.2191 49.9906 52.6901 49.5104 51.9902 49.1523C51.2904 48.8594 50.4196 48.7129 49.3779 48.7129C48.4502 48.7129 47.6038 48.9245 46.8389 49.3477C46.0739 49.7871 45.3903 50.5521 44.7881 51.6426H39.9785Z" fill="white"/>
</svg>
