<svg width="100" height="100" viewBox="0 0 100 100" fill="none" xmlns="http://www.w3.org/2000/svg">
<circle cx="50" cy="50" r="49" fill="#52A2E8"/>
<path d="M56.043 32.0381C56.0592 32.0381 55.9779 32.2171 55.7988 32.5752C55.6361 32.917 55.4082 33.389 55.1152 33.9912C54.8223 34.5934 54.4805 35.2852 54.0898 36.0664C53.6992 36.8477 53.2842 37.6696 52.8447 38.5322C52.4215 39.3949 51.9821 40.2656 51.5264 41.1445C51.0869 42.0234 50.6556 42.8617 50.2324 43.6592C49.8255 44.4567 49.4512 45.181 49.1094 45.832C48.7676 46.4831 48.4827 47.0039 48.2549 47.3945C48.7269 47.1178 49.2559 46.9551 49.8418 46.9062C50.444 46.8411 51.1357 46.8249 51.917 46.8574C53.04 46.89 54.0166 47.0853 54.8467 47.4434C55.693 47.8014 56.4173 48.249 57.0195 48.7861C57.6217 49.3232 58.1182 49.9255 58.5088 50.5928C58.9157 51.2438 59.2331 51.8867 59.4609 52.5215C59.6888 53.14 59.8434 53.7259 59.9248 54.2793C60.0225 54.8164 60.0713 55.2396 60.0713 55.5488C60.0713 55.6465 60.0713 55.8255 60.0713 56.0859C60.0713 56.3464 60.0713 56.6393 60.0713 56.9648C60.0713 57.2741 60.0632 57.5915 60.0469 57.917C60.0469 58.2425 60.0387 58.5192 60.0225 58.7471C60.0062 58.861 59.9492 59.1621 59.8516 59.6504C59.7702 60.1224 59.6074 60.6921 59.3633 61.3594C59.1354 62.0104 58.8018 62.7184 58.3623 63.4834C57.9229 64.2321 57.3451 64.9482 56.6289 65.6318C55.9128 66.2992 55.042 66.877 54.0166 67.3652C52.9912 67.8535 51.7705 68.1546 50.3545 68.2686C48.8734 68.3988 47.5632 68.3011 46.4238 67.9756C45.2845 67.6501 44.2998 67.1862 43.4697 66.584C42.6396 65.9818 41.9479 65.29 41.3945 64.5088C40.8411 63.7113 40.4017 62.8975 40.0762 62.0674C39.7669 61.2373 39.5553 60.4398 39.4414 59.6748C39.3438 58.9098 39.3275 58.2588 39.3926 57.7217C39.4902 56.9242 39.596 56.2161 39.71 55.5977C39.8239 54.9629 39.9541 54.3607 40.1006 53.791C40.2633 53.2214 40.4424 52.6598 40.6377 52.1064C40.833 51.5531 41.0609 50.9508 41.3213 50.2998C41.3864 50.137 41.5654 49.7546 41.8584 49.1523C42.1514 48.5339 42.5094 47.777 42.9326 46.8818C43.3721 45.9867 43.8604 45.002 44.3975 43.9277C44.9346 42.8535 45.4717 41.763 46.0088 40.6562C47.2783 38.0846 48.7025 35.2119 50.2812 32.0381H56.043ZM55.0176 58.0879C55.0176 57.4694 54.9932 56.7858 54.9443 56.0371C54.8955 55.2884 54.7083 54.5804 54.3828 53.9131C54.0736 53.2295 53.5609 52.6436 52.8447 52.1553C52.1286 51.667 51.1113 51.374 49.793 51.2764C49.1745 51.2275 48.613 51.2926 48.1084 51.4717C47.6038 51.6507 47.1562 51.8949 46.7656 52.2041C46.375 52.5133 46.0332 52.8714 45.7402 53.2783C45.4635 53.6689 45.2275 54.0596 45.0322 54.4502C44.8532 54.8408 44.723 55.207 44.6416 55.5488C44.5602 55.8743 44.5195 56.1266 44.5195 56.3057C44.5195 56.7126 44.5277 57.1683 44.5439 57.6729C44.5602 58.1611 44.609 58.6576 44.6904 59.1621C44.7881 59.6504 44.9427 60.1305 45.1543 60.6025C45.3659 61.0583 45.667 61.4652 46.0576 61.8232C46.4482 62.1813 46.9447 62.4743 47.5469 62.7021C48.1654 62.93 48.9303 63.0439 49.8418 63.0439C50.5742 63.0602 51.209 62.9707 51.7461 62.7754C52.2995 62.5638 52.7633 62.3034 53.1377 61.9941C53.5283 61.6686 53.8457 61.3105 54.0898 60.9199C54.334 60.5293 54.5212 60.1468 54.6514 59.7725C54.7979 59.3981 54.8955 59.0645 54.9443 58.7715C54.9932 58.4622 55.0176 58.2344 55.0176 58.0879Z" fill="white"/>
</svg>
