<svg width="100" height="100" viewBox="0 0 100 100" fill="none" xmlns="http://www.w3.org/2000/svg">
<rect width="100" height="100" fill="white"/>
<circle cx="50" cy="50" r="49" fill="#52A2E8"/>
<path d="M44.3975 42.292C44.43 43.9359 44.959 45.1891 45.9844 46.0518C46.9935 46.9469 48.1572 47.3945 49.4756 47.3945C50.8428 47.3945 52.0309 46.9469 53.04 46.0518C54.0329 45.1891 54.5456 43.9359 54.5781 42.292C54.5456 40.5993 54.0329 39.3216 53.04 38.459C52.0309 37.6289 50.8428 37.2139 49.4756 37.2139C48.1572 37.2139 46.9935 37.6289 45.9844 38.459C44.959 39.3216 44.43 40.5993 44.3975 42.292ZM38.6357 57.5996C38.6683 54.1654 40.068 51.4961 42.835 49.5918C41.777 48.6641 40.9469 47.598 40.3447 46.3936C39.6449 45.2705 39.2949 43.9359 39.2949 42.3896C39.3275 39.4274 40.3285 36.9779 42.2979 35.041C44.1533 33.1204 46.5459 32.1439 49.4756 32.1113C52.4541 32.1439 54.8874 33.1204 56.7754 35.041C58.6797 36.9779 59.6481 39.4274 59.6807 42.3896C59.6807 43.9359 59.3633 45.2705 58.7285 46.3936C58.0612 47.598 57.1986 48.6641 56.1406 49.5918C58.9076 51.4961 60.3073 54.1654 60.3398 57.5996C60.3073 60.806 59.2575 63.3695 57.1904 65.29C55.0908 67.2594 52.5192 68.2604 49.4756 68.293C46.4482 68.2604 43.9173 67.2594 41.8828 65.29C39.7507 63.3695 38.6683 60.806 38.6357 57.5996ZM43.7383 57.5508C43.7708 59.1784 44.3568 60.513 45.4961 61.5547C46.5866 62.6452 47.9131 63.1904 49.4756 63.1904C51.0869 63.1904 52.4378 62.6452 53.5283 61.5547C54.6351 60.513 55.2048 59.1784 55.2373 57.5508C55.2048 55.8906 54.6351 54.5397 53.5283 53.498C52.4378 52.4727 51.0869 51.9437 49.4756 51.9111C47.9131 51.9437 46.5866 52.4727 45.4961 53.498C44.3568 54.5397 43.7708 55.8906 43.7383 57.5508Z" fill="white"/>
</svg>
