<svg width="100" height="100" viewBox="0 0 100 100" fill="none" xmlns="http://www.w3.org/2000/svg">
<rect width="100" height="100" fill="white"/>
<path d="M44.3975 42.292C44.43 43.9359 44.959 45.1891 45.9844 46.0518C46.9935 46.9469 48.1572 47.3945 49.4756 47.3945C50.8428 47.3945 52.0309 46.9469 53.04 46.0518C54.0329 45.1891 54.5456 43.9359 54.5781 42.292C54.5456 40.5993 54.0329 39.3216 53.04 38.459C52.0309 37.6289 50.8428 37.2139 49.4756 37.2139C48.1572 37.2139 46.9935 37.6289 45.9844 38.459C44.959 39.3216 44.43 40.5993 44.3975 42.292ZM38.6357 57.5996C38.6683 54.1654 40.068 51.4961 42.835 49.5918C41.777 48.6641 40.9469 47.598 40.3447 46.3936C39.6449 45.2705 39.2949 43.9359 39.2949 42.3896C39.3275 39.4274 40.3285 36.9779 42.2979 35.041C44.1533 33.1204 46.5459 32.1439 49.4756 32.1113C52.4541 32.1439 54.8874 33.1204 56.7754 35.041C58.6797 36.9779 59.6481 39.4274 59.6807 42.3896C59.6807 43.9359 59.3633 45.2705 58.7285 46.3936C58.0612 47.598 57.1986 48.6641 56.1406 49.5918C58.9076 51.4961 60.3073 54.1654 60.3398 57.5996C60.3073 60.806 59.2575 63.3695 57.1904 65.29C55.0908 67.2594 52.5192 68.2604 49.4756 68.293C46.4482 68.2604 43.9173 67.2594 41.8828 65.29C39.7507 63.3695 38.6683 60.806 38.6357 57.5996ZM43.7383 57.5508C43.7708 59.1784 44.3568 60.513 45.4961 61.5547C46.5866 62.6452 47.9131 63.1904 49.4756 63.1904C51.0869 63.1904 52.4378 62.6452 53.5283 61.5547C54.6351 60.513 55.2048 59.1784 55.2373 57.5508C55.2048 55.8906 54.6351 54.5397 53.5283 53.498C52.4378 52.4727 51.0869 51.9437 49.4756 51.9111C47.9131 51.9437 46.5866 52.4727 45.4961 53.498C44.3568 54.5397 43.7708 55.8906 43.7383 57.5508Z" fill="white"/>
<path d="M46.5966 22.8997L49.1333 18.1973L39.8179 1H32.5049L45.4769 24.9398L46.5966 22.8997Z" fill="#CD7F32"/>
<path d="M71.114 48.031C68.6058 45.5207 65.6291 43.4933 62.3566 42.0025V37.4309C62.3566 35.9274 61.7788 34.5621 60.8351 33.5465C60.8332 33.5446 60.8332 33.5446 60.8315 33.5429L60.8351 33.5375L78.5651 1H71.2698L54.5572 31.6912H54.5516L54.3078 32.1292L53.3462 33.8964L52.641 35.1919L51.832 36.6791H58.718C58.8041 36.907 58.8581 37.1689 58.8581 37.4309V40.6498C56.0536 39.7795 53.0843 39.2897 50.0002 39.2897C47.1331 39.2897 44.3539 39.697 41.7236 40.4559V37.4309C41.7236 37.1689 41.7774 36.907 41.8637 36.6791H49.1517L49.3167 36.3849L49.959 35.1919H49.9661L51.8394 31.6914H51.8375L52.9553 29.6246L68.5716 1H61.2585L49.3165 22.8819L45.6599 29.6244L44.5457 31.6912H43.9824C43.1067 31.6912 42.2672 31.8832 41.5316 32.2511C41.5297 32.2511 41.5297 32.253 41.5282 32.253L41.5998 32.1238L42.94 29.6424L44.1349 27.4194L29.8047 1H22.5114L40.0063 33.2899C38.9048 34.3233 38.2247 35.8053 38.2247 37.4307V41.7422C34.717 43.2493 31.5433 45.3752 28.886 48.0308C23.4908 53.4258 20.1447 60.9094 20.1447 69.1446C20.1447 77.3782 23.4908 84.8564 28.886 90.2514C34.2812 95.6521 41.7667 99 50 99C58.2333 99 65.7189 95.6521 71.114 90.2516C76.5073 84.8566 79.8552 77.3784 79.8552 69.1448C79.8552 60.9096 76.5073 53.4262 71.114 48.031ZM42.1093 36.1715C42.1112 36.1715 42.1112 36.1678 42.1127 36.1678L42.0769 36.2325C42.0894 36.2126 42.0967 36.1912 42.1093 36.1715ZM33.4074 52.6617L35.2321 54.4757C33.5295 56.1872 32.1246 58.1912 31.1002 60.4054L28.766 59.3236C29.9196 56.8349 31.4966 54.5849 33.4074 52.6617ZM27.4219 75.2595C26.898 73.3217 26.618 71.2836 26.6146 69.1808V69.1395C26.6146 68.4776 26.6414 67.8243 26.6953 67.1768L29.2592 67.3885C29.211 67.9662 29.1876 68.5492 29.1876 69.1395V69.1735V69.177C29.1894 71.0537 29.4388 72.8677 29.9052 74.59L27.4219 75.2595ZM36.628 88.3356C35.5065 87.5514 34.4553 86.6723 33.4862 85.707C32.53 84.7527 31.6562 83.7154 30.8757 82.6085L32.9767 81.1265C33.6729 82.1117 34.4515 83.0356 35.3038 83.886C36.1667 84.7454 37.1015 85.5294 38.1009 86.2273L36.628 88.3356ZM40.0387 47.9807C41.1421 47.4604 42.2942 47.0225 43.4853 46.6781C44.8956 46.2708 46.365 45.991 47.8773 45.8564L48.107 48.4186C46.7614 48.5388 45.4535 48.7882 44.1994 49.1505C43.1408 49.4554 42.1164 49.845 41.1348 50.3059L40.0387 47.9807ZM50.0343 92.5303H49.9948C47.9208 92.5303 45.9095 92.2612 43.995 91.7534L44.6519 89.2666C46.3545 89.7168 48.1434 89.9574 49.995 89.9574H50.0327C50.6481 89.9574 51.2564 89.9287 51.8572 89.8766L52.0816 92.4388C51.4086 92.4979 50.7249 92.5286 50.0343 92.5303ZM55.657 49.1128L55.3089 49.016L55.9692 46.531L56.3604 46.637H56.3551C58.8847 47.3456 61.2388 48.4724 63.3397 49.9347L61.8703 52.0446C59.9991 50.7438 57.9087 49.7427 55.6624 49.113L55.6463 49.1096L55.657 49.1128ZM66.562 85.6567C64.6478 87.5765 62.4051 89.1644 59.9237 90.3287L58.8309 87.9999C61.0378 86.9648 63.0348 85.5508 64.741 83.841L64.7913 83.7907L66.6196 85.5993L66.562 85.6567ZM69.1027 55.649C70.6581 57.8452 71.8441 60.3229 72.5691 62.9927L70.0877 63.6674C69.4417 61.2935 68.3886 59.0905 67.0036 57.1347L69.1027 55.649ZM68.9125 77.8538C69.9066 75.699 70.5417 73.3485 70.7444 70.8656L73.3064 71.0754C73.0804 73.8599 72.3662 76.5082 71.2484 78.9303L68.9125 77.8538Z" fill="#CD7F32"/>
</svg>
