<svg width="332" height="332" viewBox="0 0 332 332" fill="none" xmlns="http://www.w3.org/2000/svg">
<rect width="332" height="332" fill="white"/>
<rect x="133.5" y="226.5" width="36" height="37" rx="7.5" fill="white" stroke="black" stroke-width="5"/>
<path d="M186.5 170H161.5C155.977 170 151.464 174.483 151.728 179.999C152.477 195.664 155.096 208.433 160 220C160.463 221.093 168.902 220.602 173.385 227.062C174.225 228.271 174.496 229.774 174.511 231.246C174.652 244.445 176.051 243.973 177 245C189.904 258.959 205.587 266 224 266C262.487 266 293.043 237.362 296.645 180.087C296.993 174.546 292.47 170 286.918 170H259.5C253.977 170 249.536 174.501 249.295 180.018C247.8 214.354 238.212 221.5 224 221.5C208.856 221.5 198.345 214.761 196.72 180.019C196.462 174.502 192.023 170 186.5 170Z" fill="black" stroke="black"/>
<path d="M223.5 66C186.129 66 154.576 95.0013 151.283 151.988C150.965 157.501 155.477 162 161 162H186C191.523 162 195.962 157.498 196.22 151.981C197.845 117.239 208.356 110.5 223.5 110.5C237.712 110.5 247.3 117.646 248.795 151.982C249.036 157.499 253.477 162 259 162H286.418C291.97 162 296.493 157.454 296.145 151.913C292.543 94.6376 261.987 66 223.5 66Z" fill="black" stroke="black"/>
<rect x="51" y="67" width="72" height="40" rx="10" fill="black"/>
<rect x="76" y="82" width="47" height="184" rx="10" fill="black"/>
<rect x="36" y="224" width="80" height="42" rx="10" fill="black"/>
<path d="M67.5 106.5C71.5 106.5 76.5 110.5 76.5 116.5V106.5H67.5Z" fill="black" stroke="black"/>
<path d="M68 224.5C72 224.5 76.5 221 76.5 215V224.5H68Z" fill="black" stroke="black"/>
</svg>
