<svg width="542" height="203" viewBox="0 0 542 203" fill="none" xmlns="http://www.w3.org/2000/svg">
<rect x="97.5" y="161.5" width="36" height="37" rx="7.5" fill="white" stroke="black" stroke-width="5"/>
<path d="M150.5 105H125.5C119.977 105 115.464 109.483 115.728 114.999C116.477 130.664 119.096 143.433 124 155C124.463 156.093 132.902 155.602 137.385 162.062C138.225 163.271 138.496 164.774 138.511 166.246C138.652 179.445 140.051 178.973 141 180C153.904 193.959 169.587 201 188 201C226.487 201 257.043 172.362 260.645 115.087C260.993 109.546 256.47 105 250.918 105H223.5C217.977 105 213.536 109.501 213.295 115.018C211.8 149.354 202.212 156.5 188 156.5C172.856 156.5 162.345 149.761 160.72 115.019C160.462 109.502 156.023 105 150.5 105Z" fill="black" stroke="black"/>
<path d="M187.5 1C150.129 1 118.576 30.0013 115.283 86.9877C114.965 92.5013 119.477 97 125 97H150C155.523 97 159.962 92.4976 160.22 86.9808C161.845 52.2393 172.356 45.5 187.5 45.5C201.712 45.5 211.3 52.6463 212.795 86.9817C213.036 92.4993 217.477 97 223 97H250.418C255.97 97 260.493 92.4544 260.145 86.9127C256.543 29.6376 225.987 1 187.5 1Z" fill="black" stroke="black"/>
<path d="M490.07 133.5C490.135 133.5 490.196 133.469 490.236 133.417C493.025 129.757 496.454 126.884 500.523 124.8C504.723 122.6 508.973 121.5 513.273 121.5C523.173 121.5 530.273 124.3 534.573 129.9C538.873 135.4 541.023 145.1 541.023 159V196C541.023 198.761 538.785 201 536.023 201H517.823C515.062 201 512.823 198.761 512.823 196V162C512.823 154.5 512.123 149.5 510.723 147C509.423 144.5 507.023 143.25 503.523 143.25C500.423 143.25 497.623 144.95 495.123 148.35C492.723 151.75 491.523 155.8 491.523 160.5V196C491.523 198.761 489.285 201 486.523 201H468.023C465.262 201 463.023 198.761 463.023 196V128C463.023 125.239 465.262 123 468.023 123H484.551C487.201 123 489.391 125.068 489.543 127.715L489.862 133.304C489.868 133.414 489.959 133.5 490.07 133.5V133.5Z" fill="black"/>
<path d="M397.938 149.199C397.139 151.993 399.526 154.5 402.432 154.5H417.4C420.162 154.5 422.503 152.23 421.925 149.53C420.601 143.343 416.51 140.25 409.65 140.25C403.548 140.25 399.644 143.233 397.938 149.199ZM403.524 171C400.345 171 397.884 174.048 399.657 176.688C402.484 180.896 407.415 183 414.45 183C419.992 183 425.342 182.045 430.501 180.134C433.4 179.061 436.758 180.431 437.7 183.374L440.522 192.194C441.305 194.639 440.114 197.298 437.698 198.168C429.677 201.056 421.077 202.5 411.9 202.5C399 202.5 388.65 198.85 380.85 191.55C373.05 184.25 369.15 174.4 369.15 162C369.15 149.5 372.7 139.65 379.8 132.45C387 125.15 396.7 121.5 408.9 121.5C421.4 121.5 431.15 125.05 438.15 132.15C445.15 139.15 448.65 149.1 448.65 162C448.65 163.487 448.574 165.064 448.423 166.733C448.199 169.195 446.073 171 443.601 171H403.524Z" fill="black"/>
<path d="M333.033 202.5C323.133 202.5 315.783 200.25 310.983 195.75C306.183 191.15 303.783 183.9 303.783 174V150.5C303.783 147.739 301.544 145.5 298.783 145.5H293.033C290.272 145.5 288.033 143.261 288.033 140.5V131C288.033 128.239 290.272 126 293.033 126H298.783C301.544 126 303.783 123.761 303.783 121V102.5C303.783 99.7386 306.022 97.5 308.783 97.5H327.883C330.644 97.5 332.883 99.7386 332.883 102.5V121C332.883 123.761 335.122 126 337.883 126H352.033C354.794 126 357.033 128.239 357.033 131V140.5C357.033 143.261 354.794 145.5 352.033 145.5H337.883C335.122 145.5 332.883 147.739 332.883 150.5V169.5C332.883 174.3 333.433 177.5 334.533 179.1C335.633 180.7 337.633 181.5 340.533 181.5C343.091 181.5 345.682 181.247 348.307 180.74C351.347 180.153 354.447 182.044 354.901 185.106L356.381 195.101C356.753 197.609 355.191 200.015 352.71 200.54C346.543 201.847 339.984 202.5 333.033 202.5Z" fill="black"/>
<rect x="15" y="2" width="72" height="40" rx="10" fill="black"/>
<rect x="40" y="17" width="47" height="184" rx="10" fill="black"/>
<rect y="159" width="80" height="42" rx="10" fill="black"/>
<path d="M31.5 41.5C35.5 41.5 40.5 45.5 40.5 51.5V41.5H31.5Z" fill="black" stroke="black"/>
<path d="M32 159.5C36 159.5 40.5 156 40.5 150V159.5H32Z" fill="black" stroke="black"/>
</svg>